{"title":"(Diesels) - The Blue Mountains Vol.2^D^","uid":8154217,"size":732803072,"categoryP":"video","categoryS":"movies","magnet":"?xt=urn:btih:1d52153d9c8c24a9eacb00bf26e7d0dfcf8f33e6&amp;dn=%28Diesels%29+-+The+Blue+Mountains+Vol.2%5ED%5E&amp;tr=udp%3A%2F%2Ftracker.openbittorrent.com%3A80&amp;tr=udp%3A%2F%2Fopen.demonii.com%3A1337&amp;tr=udp%3A%2F%2Ftracker.coppersurfer.tk%3A6969&amp;tr=udp%3A%2F%2Fexodus.desync.com%3A6969","seeders":0,"leechers":1,"uploader":"upsdave","files":-1,"time":1361125163,"description":"La Grande to Hinkle\nSee the Union Pacific fight and win as it takes on the Blue Mountains of eastern Oregon - the toughest challenge UP faces! Loaded with spectacular cab rides, Volume II hits all the highlights of this dramatic mountain district from La Grande to Hinkle.\n\nScale the Blue Mountains from La Grande through Hilgard and Motanic to the summit at Kamela. Ride the cab of a new GE Dash 8. Get an engineer's view from a helper set on the rear of a UP freight. Experience Meacham Creek Canyon, the Umatilla River, Pendleton, and much more all in this exciting video!\n\nThe result of meticulous and superior production techniques, this outstanding video is 60 minutes of colorful action and full Hi-Fi stereo sound. It's a rich story told as only the award-winning Video Rails can tell it. A story you'll be proud to own!\n\n    Enjoy dramatic cab rides on a new GE Dash 8-40C\n    Feel the power as SD-40-2s, C36-7s, 8-40-Cs and SD-60s take on UP's roughest helper district.\n    Thrill to exhilarating pacing scenes of the newest SD-60.\n    Watch Trailer trains, container trains, double stacks, grain trains, soda ash trains, auto rack trains and AMTRAK all take on the terrain.\n    Don't miss your chance to experience the Blue Mountains as never before.\n\n\n\n\n\nFormat                                   : AVI\nFormat/Info                              : Audio Video Interleave\nFile size                                : 699 MiB\nDuration                                 : 58mn 3s\nOverall bit rate                         : 1 683 Kbps\nWriting application                      : VirtualDubMod 1.5.4.1 (build 2178/release)\nWriting library                          : VirtualDubMod build 2178/release\n\nVideo\nID                                       : 0\nFormat                                   : MPEG-4 Visual\nFormat profile                           : Advanced Simple@L5\nFormat settings, BVOP                    : 1\nFormat settings, QPel                    : No\nFormat settings, GMC                     : No warppoints\nFormat settings, Matrix                  : Custom\nCodec ID                                 : XVID\nCodec ID/Hint                            : XviD\nDuration                                 : 58mn 3s\nBit rate                                 : 1 419 Kbps\nWidth                                    : 640 pixels\nHeight                                   : 480 pixels\nDisplay aspect ratio                     : 4:3\nFrame rate                               : 29.970 fps\nColor space                              : YUV\nChroma subsampling                       : 4:2:0\nBit depth                                : 8 bits\nScan type                                : Progressive\nCompression mode                         : Lossy\nBits/(Pixel*Frame)                       : 0.154\nStream size                              : 589 MiB (84%)\nWriting library                          : XviD 1.2.0.dev47 (UTC 2006-11-01)\n\nAudio\nID                                       : 1\nFormat                                   : AC-3\nFormat/Info                              : Audio Coding 3\nMode extension                           : CM (complete main)\nFormat settings, Endianness              : Big\nCodec ID                                 : 2000\nDuration                                 : 58mn 3s\nBit rate mode                            : Constant\nBit rate                                 : 256 Kbps\nChannel(s)                               : 2 channels\nChannel positions                        : Front: L R\nSampling rate                            : 48.0 KHz\nBit depth                                : 16 bits\nCompression mode                         : Lossy\nDelay relative to video                  : 10ms\nStream size                              : 106 MiB (15%)\nAlignment                                : Split accross interleaves\nInterleave, duration                     : 96 ms (2.88 video frames)\nInterleave, preload duration             : 96 ms\nLanguage                                 : English\n\n","torrent":{"xt":"urn:btih:1d52153d9c8c24a9eacb00bf26e7d0dfcf8f33e6","amp;dn":"%28Diesels%29+-+The+Blue+Mountains+Vol.2%5ED%5E","amp;tr":["udp%3A%2F%2Ftracker.openbittorrent.com%3A80","udp%3A%2F%2Fopen.demonii.com%3A1337","udp%3A%2F%2Ftracker.coppersurfer.tk%3A6969","udp%3A%2F%2Fexodus.desync.com%3A6969"],"infoHash":"1d52153d9c8c24a9eacb00bf26e7d0dfcf8f33e6","infoHashBuffer":{"type":"Buffer","data":[29,82,21,61,156,140,36,169,234,203,0,191,38,231,208,223,207,143,51,230]},"announce":[],"urlList":[]}}